<?xml version="1.0" encoding="UTF-8"?>
<svg width="700px" height="493px" viewBox="0 0 700 493" version="1.1" xmlns="http://www.w3.org/2000/svg" xmlns:xlink="http://www.w3.org/1999/xlink">
    <!-- Generator: Sketch 62 (91390) - https://sketch.com -->
    <title>Group 106 Copy 4</title>
    <desc>Created with Sketch.</desc>
    <g id="Keyscreens" stroke="none" stroke-width="1" fill="none" fill-rule="evenodd">
        <g id="Group-106-Copy-4">
            <g id="Group-3" transform="translate(0.000000, 60.954137)" fill="#F0F2F7">
                <path d="M169.969862,366.082917 C169.551782,361.046676 169.327309,355.939317 169.327309,350.758969 C169.339468,325.568406 174.383554,302.004187 183.492465,280.424708 C197.140398,248.094323 220.163802,220.324814 249.044071,200.819907 C263.477658,191.059967 279.337581,183.361499 296.241302,178.100676 C313.158117,172.840789 331.107506,169.991411 350.001551,169.986732 C375.178957,169.999833 398.731743,175.04356 420.301687,184.156892 C452.616386,197.826422 480.372421,220.859131 499.867865,249.75529 C509.619328,264.194948 517.306579,280.061634 522.56672,296.974496 C527.820314,313.896716 530.669245,331.855753 530.673921,350.758969 C530.67018,355.937446 530.444772,361.044804 530.025757,366.082917 L699.655947,366.082917 C699.876678,360.996145 699.999216,355.88785 699.999216,350.758969 C700.012297,302.644245 690.205651,256.371088 672.461093,214.43142 C645.828357,151.469984 601.562363,98.1711683 545.747255,60.4349182 C517.83409,41.5700683 486.997168,26.5951579 454.04927,16.3439461 C421.11353,6.08899122 386.060265,0.580193039 350.001551,0.586733703 C301.911105,0.575514256 255.65853,10.3841133 213.737339,28.1391561 C150.819545,54.7810778 97.55033,99.0601369 59.8258417,154.905146 C40.9673387,182.830925 25.9959527,213.696852 15.7506499,246.659808 C5.49879992,279.612471 -0.00078394916,314.681815 -0.00078394916,350.758969 C-0.00078394916,355.88785 0.115199121,360.997081 0.335930494,366.082917 L169.969862,366.082917 Z" id="Fill-1"></path>
            </g>
            <path d="M0,401.326289 L49.6844197,372.174637 L49.6888683,371.935553 L49.7111114,371.014636 L0.0111215516,400.174037 C0.00444862064,400.557014 0.00444862064,400.942205 0,401.326289" id="Fill-4" fill="#E2E7F2"></path>
            <path d="M0,389.201628 L49.6854934,360.052568 L49.7111114,358.889975 L0.0556912363,388.022411 C0.0378700407,388.415853 0.0167073709,388.808186 0,389.201628" id="Fill-6" fill="#E2E7F2"></path>
            <path d="M0.0558263273,383.168583 C0.0346123229,383.561865 0.0200974778,383.95737 0,384.351764 L49.6887809,355.204405 L49.7010626,354.523381 L49.7111114,354.04011 L0.0558263273,383.168583 Z" id="Fill-8" fill="#E2E7F2"></path>
            <path d="M0,392.839027 L49.6855272,363.688523 L49.691089,363.439468 L49.7111114,362.527373 L0.0333706275,391.673449 C0.0200223765,392.061975 0.0122358967,392.450501 0,392.839027" id="Fill-10" fill="#E2E7F2"></path>
            <path d="M0,397.688891 L49.6844322,368.536603 L49.6888787,368.360707 L49.7111114,367.377238 L0.0322373539,396.523994 C0.0233442908,396.9134 0.00889306315,397.299486 0,397.688891" id="Fill-12" fill="#E2E7F2"></path>
            <path d="M0.0356208421,403.527817 C0.0233761776,404.813263 0.00111315131,406.099825 0,407.38862 L47.6061423,407.38862 L47.707439,403.527817 L34.3451706,403.527817 L49.3137164,394.673769 L49.3304136,393.918807 L49.3393188,393.502238 L32.3904769,403.527817 L26.9861273,403.527817 L49.4083342,390.263497 L49.4228052,389.550974 L49.4317104,389.091966 L25.0325468,403.527817 L19.6259708,403.527817 L49.5018389,385.858809 L49.5085178,385.488029 L49.5252151,384.687278 L17.6712771,403.527817 L12.263588,403.527817 L49.5942305,381.44742 L49.6009094,381.034202 L49.6176067,380.274773 L10.3088943,403.527817 L4.89897893,403.527817 L49.6877352,377.034915 L49.6944141,376.665252 L49.7111114,375.864501 L2.94428523,403.527817 L0.0356208421,403.527817 Z" id="Fill-14" fill="#E2E7F2"></path>
            <path d="M134.37238,403.84339 L128.979759,403.84339 L128.733932,403.696524 L52.4641674,358.71673 L52.397427,355.50349 L134.37238,403.84339 Z M121.628309,403.84339 L52.5564915,363.109344 L52.4908635,359.883865 L127.026491,403.84339 L121.628309,403.84339 Z M114.26796,403.84339 L114.018796,403.696524 L52.649928,367.505297 L52.5843,364.27648 L119.673929,403.84339 L114.26796,403.84339 Z M106.912061,403.84339 L52.7433645,371.901249 L52.6766242,368.672432 L112.314693,403.84339 L106.912061,403.84339 Z M99.5528245,403.84339 L99.3058852,403.696524 L52.8356887,376.292751 L52.7700607,373.067272 L104.959906,403.84339 L99.5528245,403.84339 Z M92.1969251,403.84339 L52.9291252,380.686478 L52.8623848,377.457662 L97.5995568,403.84339 L92.1969251,403.84339 Z M84.838801,403.84339 L84.5885247,403.696524 L53.0214493,385.083543 L52.9558213,381.852501 L90.242545,403.84339 L84.838801,403.84339 Z M77.4817893,403.84339 L53.1148858,389.471707 L53.0492578,386.249566 L82.8855333,403.84339 L77.4817893,403.84339 Z M70.1292269,403.84339 L69.8800629,403.696524 L53.2083223,393.864322 L53.141582,390.63773 L75.5307462,403.84339 L70.1292269,403.84339 Z M50.9235775,362.145817 L50.9235775,367.638811 L50.9235775,370.827573 L50.9235775,376.316116 L50.9235775,379.502653 L50.9235775,384.996759 L50.9235775,388.177733 L50.9235775,393.668501 L50.9235775,428.000544 L53.9346798,428.000544 L53.2350185,395.031458 L68.1759592,403.84339 L54.6944075,403.84339 L54.7945181,407.689709 L295.698277,407.689709 L295.797275,403.84339 L282.444755,403.84339 L297.402381,395.022557 L297.42129,394.270427 L297.430189,393.855421 L280.491487,403.84339 L275.093305,403.84339 L297.495817,390.62883 L297.51139,389.918979 L297.522513,389.461694 L273.140037,403.84339 L267.737405,403.84339 L297.589254,386.240665 L297.59704,385.871276 L297.61595,385.073529 L265.78525,403.84339 L260.380394,403.84339 L297.681578,381.845826 L297.691589,381.434157 L297.708274,380.677577 L258.427126,403.84339 L253.02227,403.84339 L297.775014,377.449873 L297.782801,377.081597 L297.801711,376.28385 L251.06789,403.84339 L248.004507,403.84339 L245.664146,403.84339 L297.867339,373.058371 L297.874013,372.818046 L297.895147,371.892348 L243.710878,403.84339 L238.309359,403.84339 L297.960775,368.664644 L297.965224,368.487738 L297.987471,367.497508 L236.358315,403.84339 L230.950122,403.84339 L298.054212,364.268692 L298.059773,364.018353 L298.080908,363.101556 L228.996854,403.84339 L223.595335,403.84339 L298.146536,359.874965 L298.173232,358.708941 L221.642067,403.84339 L216.251671,403.84339 L298.239972,355.495701 L298.256657,354.813667 L298.266668,354.329678 L214.298404,403.84339 L136.324535,403.84339 L52.3707309,354.337466 L52.3418101,352.827644 L51.2394819,353.668783 L50.9235775,353.909109 L50.9235775,358.960393 L50.9235775,362.145817 Z" id="Fill-16" fill="#E2E7F2"></path>
            <path d="M377.549537,403.84339 L377.300331,403.696524 L301.023321,358.71673 L300.953231,355.50349 L382.941951,403.84339 L377.549537,403.84339 Z M370.19574,403.84339 L301.11566,363.109344 L301.044459,359.883865 L375.594829,403.84339 L370.19574,403.84339 Z M362.834155,403.84339 L362.588287,403.696524 L301.209112,367.505297 L301.137911,364.27648 L368.242144,403.84339 L362.834155,403.84339 Z M355.478133,403.84339 L301.301452,371.901249 L301.232475,368.672432 L360.882784,403.84339 L355.478133,403.84339 Z M348.118773,403.84339 L347.869567,403.696524 L301.394904,376.292751 L301.325928,373.067272 L353.524537,403.84339 L348.118773,403.84339 Z M340.759413,403.84339 L301.488356,380.686478 L301.418267,377.457662 L346.165177,403.84339 L340.759413,403.84339 Z M333.397828,403.84339 L333.150848,403.696524 L301.580696,385.083543 L301.51172,381.852501 L338.805818,403.84339 L333.397828,403.84339 Z M326.044031,403.84339 L301.674148,389.471707 L301.604059,386.249566 L331.446458,403.84339 L326.044031,403.84339 Z M318.689122,403.84339 L318.438803,403.696524 L301.767601,393.864322 L301.697511,390.63773 L324.090436,403.84339 L318.689122,403.84339 Z M384.895547,403.84339 L300.929868,354.337466 L300.897605,352.827644 L299.793979,353.668783 L299.479134,353.909109 L299.479134,358.960393 L299.479134,362.145817 L299.479134,367.638811 L299.479134,370.827573 L299.479134,376.316116 L299.479134,379.502653 L299.479134,384.996759 L299.479134,388.177733 L299.479134,393.668501 L299.479134,428.000544 L302.488517,428.000544 L301.790964,395.031458 L316.735526,403.84339 L303.253935,403.84339 L303.35295,407.689709 L384.895547,407.689709 L384.996786,403.84339 L384.895547,403.84339 Z" id="Fill-18" fill="#E2E7F2"></path>
            <path d="M49.1176092,371.116483 L49.0921474,372.125255 L49.1176092,371.116483 Z" id="Fill-20" fill="#EEF8FE"></path>
            <path d="M50.3100697,355.017964 L50.3246192,354.274723 L50.3100697,355.017964 Z" id="Fill-22" fill="#EEF8FE"></path>
            <path d="M50.3288629,362.63407 L50.305826,363.633142 L50.3288629,362.63407 Z" id="Fill-24" fill="#EEF8FE"></path>
            <path d="M50.3288629,367.443923 L50.305826,368.523018 L50.3288629,367.443923 Z" id="Fill-26" fill="#EEF8FE"></path>
            <path d="M49.1151843,379.695287 L49.0945724,380.520977 L49.1151843,379.695287 Z" id="Fill-28" fill="#EEF8FE"></path>
            <path d="M49.1151843,384.523328 L49.0945724,385.392666 L49.1151843,384.523328 Z" id="Fill-30" fill="#EEF8FE"></path>
            <path d="M49.1151843,376.036065 L49.0945724,376.905403 L49.1151843,376.036065 Z" id="Fill-32" fill="#EEF8FE"></path>
            <path d="M49.1103344,393.219741 L49.0994222,393.670778 L49.1103344,393.219741 Z" id="Fill-34" fill="#EEF8FE"></path>
            <path d="M49.1109407,389.558699 L49.098816,390.057023 L49.1109407,389.558699 Z" id="Fill-36" fill="#EEF8FE"></path>
            <polygon id="Fill-38" fill="#FFFFFF" points="52.1360436 352.844619 49.7111114 352.844619 50.9226243 354.023136"></polygon>
            <path d="M50.316132,352.221411 L50.3185569,352.221411 L50.316132,352.221411 Z" id="Fill-40" fill="#EEF8FE"></path>
            <path d="M50.9235775,354.023136 L49.7111114,352.844619 L50.9235775,354.023136 Z" id="Fill-42" fill="#EEF8FE"></path>
            <path d="M298.864414,355.017964 L298.881389,354.274723 L298.864414,355.017964 Z" id="Fill-44" fill="#EEF8FE"></path>
            <path d="M297.668923,379.695287 L297.651948,380.520977 L297.668923,379.695287 Z" id="Fill-46" fill="#EEF8FE"></path>
            <path d="M297.671954,362.63407 L297.648917,363.633142 L297.671954,362.63407 Z" id="Fill-48" fill="#EEF8FE"></path>
            <path d="M297.670741,384.523328 L297.650129,385.392666 L297.670741,384.523328 Z" id="Fill-50" fill="#EEF8FE"></path>
            <path d="M297.670741,376.036065 L297.650129,376.905403 L297.670741,376.036065 Z" id="Fill-52" fill="#EEF8FE"></path>
            <path d="M297.67256,367.443923 L297.648311,368.523018 L297.67256,367.443923 Z" id="Fill-54" fill="#EEF8FE"></path>
            <path d="M297.671954,371.116483 L297.648917,372.125255 L297.671954,371.116483 Z" id="Fill-56" fill="#EEF8FE"></path>
            <path d="M297.665285,393.219741 L297.655585,393.670778 L297.665285,393.219741 Z" id="Fill-58" fill="#EEF8FE"></path>
            <path d="M297.666498,389.558699 L297.654373,390.057023 L297.666498,389.558699 Z" id="Fill-60" fill="#EEF8FE"></path>
            <polygon id="Fill-62" fill="#FFFFFF" points="300.691601 352.844619 298.266668 352.844619 299.479134 354.023136"></polygon>
            <path d="M299.479134,354.023136 L298.266668,352.844619 L299.479134,354.023136 Z" id="Fill-64" fill="#EEF8FE"></path>
            <polygon id="Fill-66" fill="#FFFFFF" points="298.293592 355.494628 298.162563 363.100595 298.148204 364.017406 298.088074 367.496613 298.07192 368.486857 298.013585 371.891518 297.998328 372.817229 297.938199 376.284197 297.924737 377.080843 297.86371 380.676877 297.851145 381.433468 297.789221 385.072894 297.774861 385.870653 297.713834 389.461123 297.705757 389.918416 297.639345 393.856028 297.632165 394.269928 297.054202 428.000544 299.479134 428.000544 299.479134 393.669105 299.479134 388.177143 299.479134 384.996122 299.479134 379.501935 299.479134 376.315351 299.479134 370.826727 299.479134 367.637917 299.479134 362.145955 299.479134 358.959371 299.479134 353.908012 298.339362 352.827644 298.306156 354.812584"></polygon>
            <polygon id="Fill-68" fill="#FFFFFF" points="49.7380351 355.494628 49.6070062 363.100595 49.5926469 364.017406 49.5325172 367.496613 49.5163629 368.486857 49.4580282 371.891518 49.4409764 372.817229 49.3826417 376.284197 49.3691798 377.080843 49.3081526 380.676877 49.2937933 381.433468 49.2336636 385.072894 49.2193043 385.870653 49.1582771 389.461123 49.1502 389.918416 49.0828906 393.856028 49.0757109 394.269928 48.4986453 428.000544 50.9235775 428.000544 50.9235775 393.669105 50.9235775 388.177143 50.9235775 384.996122 50.9235775 379.501935 50.9235775 376.315351 50.9235775 370.826727 50.9235775 367.637917 50.9235775 362.145955 50.9235775 358.959371 50.9235775 353.908012 50.9217826 353.908012 49.7838055 352.827644 49.7488046 354.812584"></polygon>
            <path d="M100.031785,231.581031 C89.703885,231.581031 81.0050125,238.25473 77.7880165,247.48141 C77.3197266,247.43481 76.8769597,247.348269 76.386476,247.348269 C70.013517,247.348269 64.5560537,251.146119 62.064796,256.591591 C60.4546334,255.738378 58.6380683,255.226894 56.6772432,255.226894 C50.1533662,255.226894 44.8612469,260.517035 44.8612469,267.045388 C44.8612469,273.573741 50.1533662,278.86721 56.6772432,278.86721 L100.031785,278.86721 C113.093965,278.86721 123.671545,268.275834 123.671545,255.226894 C123.671545,242.162422 113.093965,231.581031 100.031785,231.581031" id="Fill-70" fill="#FFFFFF"></path>
            <path d="M292.456339,202.974801 C292.248525,253.40144 289.328367,302.051672 284.316075,347.572097 C281.709252,372.109827 278.884925,396.625351 275.236881,418.937021 C275.191657,419.205703 275.368245,419.461061 275.628819,419.506582 C275.889394,419.550992 276.139201,419.37002 276.184424,419.100228 C279.837853,396.754141 282.66218,372.223073 285.271156,347.682012 C290.284525,302.128279 293.206837,253.441409 293.416804,202.979242 C293.416804,202.705009 293.201453,202.481844 292.936571,202.481844 C292.670613,202.481844 292.456339,202.701678 292.456339,202.974801" id="Fill-72" fill="#C9E9FB"></path>
            <path d="M326.364074,178.720938 C325.758297,231.226703 317.136061,281.870789 302.365183,329.265521 L302.362939,329.268843 C294.658345,354.845054 286.038353,382.268546 275.275703,405.476958 C275.160157,405.726142 275.270094,406.01741 275.523623,406.13148 C275.772665,406.244444 276.071067,406.13591 276.185492,405.887834 C286.984039,382.594146 295.615249,355.136322 303.324331,329.551252 L303.322087,329.554574 C318.118767,282.074566 326.75783,231.338559 327.365855,178.732013 C327.366973,178.459572 327.144855,178.23586 326.868889,178.232521 C326.591802,178.232521 326.366318,178.448497 326.364074,178.720938" id="Fill-74" fill="#C9E9FB"></path>
            <path d="M246.130625,107.194946 C246.538852,175.55858 252.098486,248.533434 261.62849,310.237529 L261.62849,310.234195 C266.583646,343.489656 272.133242,379.170203 279.098119,409.427093 C279.158344,409.696053 279.42601,409.862764 279.69479,409.800525 C279.962456,409.740509 280.127516,409.473772 280.067291,409.208146 C273.114682,379.002381 267.566201,343.338505 262.611045,310.088601 L262.611045,310.086378 C253.087733,248.441187 247.535906,175.501898 247.125485,107.189389 C247.123255,106.915983 246.89797,106.69702 246.622497,106.69702 C246.34814,106.69702 246.127316,106.92154 246.130625,107.194946" id="Fill-76" fill="#C9E9FB"></path>
            <polygon id="Fill-78" fill="#0091A7" points="321.303525 172.170191 332.21572 172.170191 326.742024 161.257995"></polygon>
            <path d="M213.394039,40.5146294 C213.394039,50.7090916 220.002149,63.0670587 224.536366,70.5127144 C230.748077,80.7516017 236.500277,90.9349599 247.360253,90.9349599 C258.429501,90.9405106 264.351111,81.1070029 270.547321,70.5127144 C274.833513,63.1759003 281.292142,50.4125537 281.292142,40.5146294 C281.292142,16.3173589 266.090612,0 247.360253,0 C228.599999,0 213.394039,16.3173589 213.394039,40.5146294" id="Fill-80" fill="#F1E05F"></path>
            <polygon id="Fill-82" fill="#F1E05F" points="241.28076 101.847155 252.192955 101.847155 246.725656 90.9349599"></polygon>
            <path d="M326.215506,70.3230356 C311.836417,70.3230356 299.561234,79.945577 294.62927,95.3594114 C312.383676,96.5098965 326.456521,112.4912 326.456521,135.787411 C326.456521,143.289995 322.774961,152.411698 319.126569,159.586683 C321.241531,160.649438 323.576502,161.257995 326.215506,161.257995 C337.283403,161.257995 343.190482,151.431121 349.381694,140.832444 C353.660264,133.485331 360.102441,120.735602 360.102441,110.833213 C360.102441,86.63527 344.932866,70.3230356 326.215506,70.3230356" id="Fill-84" fill="#0091A7"></path>
            <path d="M303.147067,140.119796 C298.609105,132.669224 291.988981,120.310092 291.988981,110.118723 C291.988981,104.49831 292.819407,99.3098959 294.311735,94.6456535 C293.632094,94.6012321 292.944692,94.5723582 292.250638,94.5723582 C273.467934,94.5723582 258.255286,110.88388 258.255286,135.074641 C258.255286,145.280448 264.87541,157.641801 269.402284,165.083488 C275.615511,175.32039 281.381926,185.507318 292.250638,185.507318 C303.344418,185.509539 309.271596,175.675761 315.481497,165.083488 C316.524795,163.29775 317.702248,161.185514 318.878593,158.874493 C312.290621,155.572876 307.842465,147.859107 303.147067,140.119796" id="Fill-86" fill="#FFFFFF"></path>
            <path d="M294.510477,94.5723582 C293.027645,99.2389954 292.204338,104.430074 292.204338,110.053372 C292.204338,120.249974 298.771009,132.615451 303.268969,140.069848 C307.924117,147.813133 312.33524,155.530862 318.865638,158.833063 C322.493025,151.655331 326.153389,142.528722 326.153389,135.022103 C326.153389,111.71225 312.164863,95.7234621 294.510477,94.5723582" id="Fill-88" fill="#EEF8FE"></path>
            <polygon id="Fill-90" fill="#FFFFFF" points="287.354473 197.631979 298.266668 197.631979 292.795634 186.719784"></polygon>
            <path d="M194.283545,307.175843 L198.844446,291.487394 C197.493602,292.507045 196.242657,293.29005 195.233687,293.660832 C192.611918,294.627047 184.015137,293.464536 184.015137,293.464536 L174.265089,288.566939 C174.265089,288.566939 166.030162,292.220234 164.379624,292.629185 C163.358444,292.881099 158.97181,294.925854 155.195665,294.968385 L162.581459,320.091059 C177.603904,313.737597 194.283545,307.175843 194.283545,307.175843" id="Fill-92" fill="#DDCE58"></path>
            <path d="M194.616325,306.829992 C194.616325,306.829992 177.92916,313.503379 162.90738,319.976898 C156.079299,322.908302 149.584294,325.806395 145.176574,328.016053 C143.244726,328.982084 141.323981,330.092464 139.425441,331.258364 C141.624861,322.997133 143.500085,316.1905 144.477112,313.003708 C148.218678,300.956079 151.316296,293.527634 151.316296,293.527634 C151.316296,293.527634 155.846145,295.926056 159.398968,295.926056 C164.450638,295.926056 167.781409,294.038409 168.614102,293.405492 C170.769111,291.762129 174.587286,287.875797 174.587286,287.875797 C174.587286,287.875797 180.2607,291.295769 184.346446,292.861405 C188.687552,294.53808 192.939837,294.049512 195.571146,293.061274 C196.570378,292.683744 197.824968,291.88427 199.179482,290.851617 L194.616325,306.829992 Z M229.922503,237.608871 C223.99373,231.679439 213.146517,229.736273 209.782438,229.258809 C209.138489,229.169979 208.738796,229.125563 208.738796,229.125563 C208.738796,229.125563 194.616325,229.125563 173.421516,215.001523 C172.800882,214.579579 172.211335,214.157634 171.634002,213.724586 C162.607611,206.818019 160.686866,197.957182 153.214835,191.306003 C147.419293,186.164941 138.326287,182.356336 133.796438,180.657454 C132.197667,182.422959 131.409385,184.521578 131.166238,186.797858 C130.820948,189.873612 131.420487,193.260272 132.25318,196.535895 C132.68618,198.323608 133.185796,200.066905 133.629899,201.710268 C134.262746,204.064275 134.751259,206.218413 134.751259,207.939503 C134.751259,215.001523 143.122598,229.125563 151.482834,229.125563 C153.425784,229.125563 155.835042,227.94856 158.377531,226.183055 C159.111411,228.148429 159.71095,230.213736 159.854173,232.012553 C160.266079,237.409002 151.54945,238.663732 144.899009,241.572929 C138.259671,244.482126 133.274617,250.289416 132.441924,271.053532 C131.620334,291.828751 117.409042,344.471892 116.232169,350.601192 C115.221835,355.819981 111.791141,371.698422 111.546884,373.719315 C117.109272,373.90808 122.638353,374.218986 128.123024,374.652035 C129.977153,367.467873 132.330898,358.329441 134.706849,349.224321 C152.137886,342.051262 186.244986,333.168218 201.667568,328.016053 C213.97921,323.918749 219.119701,315.024601 222.673634,304.142871 C225.226115,296.314689 226.969219,287.453852 229.922503,278.570808 C236.983738,257.373644 236.983738,244.670891 229.922503,237.608871 L229.922503,237.608871 Z" id="Fill-94" fill="#F1E05F"></path>
            <path d="M309.518506,405.775256 C300.392168,401.475307 286.377675,402.153131 277.705428,403.145342 C276.399916,402.183232 275.157844,401.263487 274.000357,400.376072 C261.516195,390.783962 228.21953,372.853941 228.21953,372.853941 C228.21953,372.853941 239.033127,359.922877 237.373692,338.240295 C236.482205,326.55451 227.421532,311.9902 222.088189,304.328999 C218.532256,315.252231 213.373649,324.177664 201.029721,328.299239 C185.572821,333.465422 151.375765,342.386396 133.905505,349.591626 C131.521528,358.734454 129.1676,367.908498 127.308944,375.122647 C162.043563,377.880769 194.839393,385.426026 223.906779,396.034873 C240.423225,402.071748 255.735439,409.08634 269.547372,416.79771 C274.140591,419.359619 278.549058,421.998452 282.797257,424.701947 C294.388819,432.087782 304.684886,439.968607 313.3972,448.143751 C313.990412,448.702288 314.540218,449.268628 315.116736,449.824935 C313.220238,442.280792 310.386621,435.852607 305.803419,429.554859 C315.036602,430.549299 323.701058,430.720984 329.09784,430.911623 C339.531915,431.288439 343.127915,428.603897 343.127915,428.603897 C343.127915,428.603897 323.553033,412.387391 309.518506,405.775256" id="Fill-96" fill="#2DB8C5"></path>
            <path d="M316.183042,487.145833 C314.629372,487.138438 313.670014,486.873275 312.816386,486.492962 C312.17533,486.201388 311.582131,485.81368 310.921042,485.323498 C309.929409,484.603015 308.787529,483.619482 307.169308,482.776454 C305.554426,481.930257 303.463204,481.337601 300.915675,481.349222 C298.649721,481.340771 296.7477,481.800316 295.214063,482.506009 C294.06773,483.029996 293.139535,483.662796 292.348232,484.244887 C291.16072,485.12489 290.268139,485.862275 289.328814,486.340837 C288.386151,486.812003 287.39563,487.134213 285.647195,487.145833 C284.093525,487.138438 283.131942,486.873275 282.276088,486.492962 C281.637258,486.201388 281.042946,485.81368 280.380744,485.323498 C279.385772,484.603015 278.248343,483.619482 276.632348,482.776454 C275.015241,481.930257 272.921793,481.337601 270.374264,481.349222 C268.110535,481.340771 266.208514,481.800316 264.672651,482.506009 C263.525206,483.029996 262.59701,483.662796 261.807933,484.244887 C260.617083,485.12489 259.723389,485.862275 258.789629,486.340837 C257.844739,486.812003 256.848654,487.134213 255.104671,487.145833 C253.551001,487.138438 252.589417,486.873275 251.736902,486.492962 C251.096959,486.201388 250.501534,485.81368 249.842671,485.323498 C248.842135,484.603015 247.712496,483.619482 246.089824,482.776454 C244.468264,481.930257 242.379268,481.337601 239.833965,481.349222 C237.57135,481.340771 235.66599,481.800316 234.133466,482.506009 C232.980456,483.029996 232.054486,483.662796 231.263183,484.244887 C230.080123,485.12489 229.180865,485.862275 228.244879,486.336611 C227.304441,486.812003 226.309469,487.134213 224.561034,487.145833 C223.006251,487.138438 222.048006,486.873275 221.192152,486.492962 C220.552209,486.201388 219.957897,485.81368 219.293469,485.323498 C218.300723,484.603015 217.163294,483.619482 215.538396,482.776454 C213.923514,481.930257 211.830066,481.337601 209.284763,481.349222 C207.024374,481.340771 205.114562,481.800316 203.58649,482.506009 C202.436818,483.029996 201.508623,483.662796 200.721772,484.244887 C199.530921,485.12489 198.637227,485.862275 197.699015,486.336611 C196.755239,486.812003 195.762493,487.134213 194.012945,487.145833 C192.460388,487.138438 191.502143,486.873275 190.64295,486.492962 C190.006346,486.201388 189.409808,485.81368 188.746493,485.323498 C187.752634,484.603015 186.619657,483.619482 184.995872,482.776454 C183.383216,481.930257 181.286429,481.337601 178.740013,481.349222 C176.477398,481.340771 174.572037,481.800316 173.041739,482.506009 C171.888729,483.029996 170.963873,483.662796 170.172569,484.244887 C168.985058,485.12489 168.090251,485.862275 167.152039,486.336611 C166.210489,486.812003 165.215517,487.134213 163.463743,487.145833 C161.910073,487.138438 160.952941,486.873275 160.101539,486.492962 C159.458257,486.201388 158.862832,485.81368 158.201743,485.323498 C157.205658,484.603015 156.069342,483.619482 154.453347,482.776454 C152.83624,481.930257 150.743905,481.337601 148.196376,481.349222 C145.930422,481.340771 144.0284,481.800316 142.496989,482.506009 C141.348431,483.029996 140.419122,483.662796 139.627819,484.244887 C138.443647,485.12489 137.546614,485.862275 136.609515,486.336611 C135.669077,486.812003 134.672992,487.134213 132.924557,487.145833 C131.367548,487.138438 130.411529,486.873275 129.554562,486.492962 C128.909055,486.199275 128.320307,485.81368 127.656993,485.323498 C126.662021,484.603015 125.524592,483.619482 123.901919,482.776454 C122.287038,481.930257 120.19359,481.337601 117.646061,481.349222 C115.385671,481.340771 113.478085,481.800316 111.946674,482.506009 C110.798116,483.029996 109.86992,483.662796 109.076391,484.244887 C107.893332,485.12489 106.997412,485.862275 106.056974,486.336611 C105.116536,486.812003 104.121564,487.134213 102.374242,487.145833 C100.815007,487.138438 99.8589885,486.873275 99.0009086,486.492962 C98.3576269,486.199275 97.7688795,485.81368 97.0988872,485.323498 C96.1094799,484.600902 94.972051,483.619482 93.3493786,482.774341 C91.728932,481.930257 89.6365971,481.337601 87.0879552,481.349222 C84.8264528,481.340771 82.9166408,481.800316 81.3841168,482.504952 C80.2344456,483.029996 79.3040243,483.662796 78.5171728,484.240661 C77.3285486,485.12489 76.4326286,485.860163 75.4933038,486.336611 C74.5506401,486.812003 73.5545552,487.134213 71.8050071,487.145833 C70.3181138,487.145833 69.1105695,488.291 69.1105695,489.706611 C69.1105695,491.115884 70.3181138,492.26105 71.8050071,492.26105 C74.0709612,492.269501 75.9774345,491.813125 77.5110714,491.104263 C78.6585167,490.579219 79.588938,489.948533 80.3780153,489.368554 C81.5621878,488.486438 82.4603337,487.747996 83.4007715,487.271548 C84.3434351,486.797213 85.3384071,486.473946 87.0879552,486.463382 C88.6460769,486.468664 89.6054347,486.733827 90.4624016,487.11731 C91.1045704,487.406771 91.6977696,487.796592 92.3633101,488.284661 C93.3560562,489.008313 94.4912592,489.992902 96.1161576,490.834874 C97.7321524,491.681072 99.8267131,492.273727 102.374242,492.26105 C104.640196,492.269501 106.543331,491.813125 108.073629,491.10215 C109.224413,490.579219 110.151495,489.948533 110.941686,489.368554 C112.126971,488.486438 113.024004,487.745884 113.962216,487.270492 C114.902654,486.797213 115.898739,486.473946 117.646061,486.463382 C119.205295,486.468664 120.159088,486.733827 121.017168,487.11731 C121.657111,487.406771 122.25031,487.796592 122.913625,488.284661 C123.906371,489.005144 125.0438,489.992902 126.666473,490.832761 C128.28358,491.681072 130.377028,492.273727 132.924557,492.26105 C135.188285,492.269501 137.092533,491.813125 138.623944,491.10215 C139.773615,490.579219 140.702923,489.948533 141.493114,489.368554 C142.678399,488.486438 143.569867,487.745884 144.511418,487.270492 C145.454082,486.797213 146.446828,486.473946 148.196376,486.463382 C149.748933,486.468664 150.704952,486.733827 151.564144,487.11731 C152.200749,487.406771 152.792835,487.793423 153.459488,488.284661 C154.453347,489.005144 155.590776,489.992902 157.21011,490.832761 C158.824992,491.676846 160.918439,492.273727 163.463743,492.26105 C165.727471,492.269501 167.633944,491.813125 169.166468,491.10215 C170.316139,490.579219 171.244335,489.948533 172.034525,489.368554 C173.224262,488.486438 174.117956,487.745884 175.052829,487.270492 C175.999945,486.797213 176.993804,486.473946 178.740013,486.463382 C180.29257,486.468664 181.254154,486.733827 182.107782,487.11731 C182.746612,487.406771 183.342037,487.796592 184.005351,488.284661 C184.996985,489.005144 186.135526,489.992902 187.755973,490.832761 C189.370855,491.676846 191.465416,492.273727 194.012945,492.26105 C196.278899,492.269501 198.184259,491.813125 199.716783,491.10215 C200.865341,490.579219 201.791311,489.948533 202.582614,489.368554 C203.771238,488.486438 204.664932,487.745884 205.600918,487.270492 C206.543582,486.797213 207.537441,486.473946 209.284763,486.463382 C210.839546,486.468664 211.80113,486.733827 212.652532,487.11731 C213.29804,487.406771 213.890126,487.796592 214.553441,488.284661 C215.546187,489.005144 216.682503,489.992902 218.302949,490.832761 C219.92117,491.676846 222.015731,492.273727 224.561034,492.26105 C226.822536,492.269501 228.731235,491.813125 230.262646,491.10215 C231.411204,490.579219 232.338287,489.948533 233.130703,489.368554 C234.315989,488.486438 235.209683,487.745884 236.147894,487.270492 C237.092784,486.797213 238.083304,486.473946 239.833965,486.463382 C241.387635,486.468664 242.343654,486.733827 243.202847,487.11731 C243.841677,487.406771 244.431537,487.793423 245.095965,488.284661 C246.089824,489.005144 247.227253,489.992902 248.847699,490.832761 C250.464807,491.676846 252.558255,492.273727 255.104671,492.26105 C257.363947,492.269501 259.271534,491.813125 260.801832,491.10215 C261.951503,490.579219 262.877472,489.948533 263.66655,489.368554 C264.858513,488.486438 265.751094,487.745884 266.68708,487.270492 C267.628631,486.797213 268.625829,486.473946 270.374264,486.463382 C271.925708,486.468664 272.885066,486.733827 273.739807,487.11731 C274.377524,487.406771 274.976287,487.793423 275.637376,488.284661 C276.632348,489.005144 277.766438,489.992902 279.389111,490.832761 C281.006218,491.676846 283.095215,492.273727 285.647195,492.26105 C287.910924,492.269501 289.816284,491.813125 291.344356,491.10215 C292.496253,490.579219 293.424449,489.948533 294.2113,489.368554 C295.398811,488.486438 296.293618,487.745884 297.23183,487.270492 C298.172268,486.797213 299.166127,486.473946 300.915675,486.463382 C302.471571,486.468664 303.426477,486.733827 304.282331,487.11731 C304.922274,487.406771 305.515473,487.793423 306.181014,488.284661 C307.169308,489.005144 308.308963,489.992902 309.929409,490.832761 C311.544291,491.676846 313.636626,492.273727 316.183042,492.26105 C317.671048,492.26105 318.878593,491.115884 318.878593,489.706611 C318.878593,488.291 317.671048,487.145833 316.183042,487.145833" id="Fill-98" fill="#E2E7F2"></path>
            <path d="M362.273488,466.257598 C360.003378,466.24761 358.107548,466.722604 356.573781,467.467279 C354.28257,468.591505 352.884298,470.045342 351.612637,470.900997 C350.336533,471.771079 349.321426,472.293794 346.980237,472.330418 C345.43092,472.330418 344.459127,472.048529 343.600617,471.658989 C342.338951,471.058588 341.211671,469.952119 339.424682,468.664752 C338.975991,468.349569 338.506198,468.037715 337.95533,467.744729 C336.341598,466.879085 334.260294,466.224304 331.706977,466.257598 C330.777387,466.253159 329.918877,466.349711 329.112566,466.497315 C324.64898,459.545534 318.627193,452.389551 311.054979,445.303485 C297.690877,432.780515 279.79433,420.512798 258.562588,409.828764 C216.665521,388.755903 161.845269,373.837986 103.102303,373.439568 C102.272669,374.044409 101.240902,374.81239 99.9548031,375.868918 C96.7506615,378.484714 92.3348324,382.464453 87.7190915,387.762633 C78.4642867,398.390067 68.4964633,414.174736 65.1734852,435.144386 C63.4609077,445.932741 63.0066637,459.169313 62.8456236,467.355189 C61.361834,466.68931 59.5504111,466.228743 57.4080232,466.257598 C56.1774551,466.24761 55.0723872,466.407421 54.0528372,466.659345 C53.2132077,466.873536 52.4224455,467.13101 51.7271968,467.472828 C49.4259901,468.591505 48.0388244,470.045342 46.7782696,470.907655 C45.5021661,471.771079 44.4903904,472.293794 42.1769668,472.330418 C40.632093,472.330418 39.6558571,472.048529 38.8051215,471.658989 C37.5367923,471.058588 36.4161757,469.952119 34.6558414,468.67363 C32.9032815,467.390703 30.3266407,466.209877 26.9359148,466.257598 C25.4487933,466.257598 24.2493226,467.456181 24.2493226,468.942202 C24.2493226,470.419344 25.4487933,471.622366 26.9359148,471.622366 C28.4830099,471.631244 29.4392546,471.906474 30.2988752,472.310441 C31.5716469,472.891976 32.6833785,474.017312 34.4625933,475.2958 C36.2184851,476.569849 38.7817984,477.749565 42.1769668,477.711656 C44.4326381,477.718491 46.3251362,477.236838 47.8600145,476.497712 C50.164553,475.375706 51.5306169,473.91854 52.7933929,473.058446 C53.3064998,472.708859 53.8018368,472.435848 54.3393774,472.202791 C55.1212546,471.855424 56.0352956,471.645672 57.4080232,471.622366 C58.9584501,471.631244 59.916916,471.906474 60.7676517,472.310441 C62.0337597,472.897525 63.1454913,474.017312 64.9424761,475.2958 C66.695036,476.569849 69.2472431,477.749565 72.6435221,477.711656 C74.9058571,477.718491 76.8005765,477.236838 78.3243485,476.497712 C80.6266658,475.375706 82.0038359,473.91743 83.2588376,473.058446 C84.547158,472.193912 85.5533806,471.661209 87.8668041,471.622366 C89.4194523,471.631244 90.3745863,471.906474 91.2242114,472.310441 C92.4880981,472.891976 93.6242634,474.017312 95.401257,475.2958 C97.1471532,476.56763 99.7104665,477.749565 103.102303,477.711656 C105.357974,477.718491 107.250472,477.236838 108.785351,476.497712 C111.078783,475.362388 112.465949,473.91743 113.708734,473.058446 C114.993722,472.193912 115.996613,471.661209 118.307815,471.622366 C119.869348,471.631244 120.824482,471.906474 121.671886,472.310441 C122.940215,472.891976 124.050836,474.017312 125.82783,475.2958 C127.583722,476.56763 130.147035,477.749565 133.546646,477.711656 C135.794543,477.718491 137.698147,477.236838 139.22303,476.497712 C141.523126,475.375706 142.903628,473.91854 144.169736,473.058446 C145.432512,472.193912 146.455394,471.661209 148.778813,471.622366 C150.319244,471.631244 151.278821,471.906474 152.121782,472.310441 C153.401217,472.891976 154.517392,474.017312 156.297717,475.2958 C158.051388,476.56763 160.598042,477.749565 164.002095,477.711656 C166.24666,477.718491 168.149154,477.236838 169.689585,476.497712 C171.986349,475.375706 173.375736,473.91854 174.619632,473.058446 C175.902399,472.193912 176.919728,471.661209 179.238704,471.622366 C180.794684,471.631244 181.746487,471.906474 182.599444,472.310441 C183.874436,472.897525 184.990611,474.017312 186.756498,475.2958 C188.519053,476.569849 191.079035,477.749565 194.469761,477.711656 C196.73987,477.718491 198.633479,477.236838 200.166136,476.497712 C202.459568,475.375706 203.833406,473.91854 205.097293,473.058446 C206.381171,472.193912 207.406274,471.661209 209.719698,471.622366 C211.275678,471.631244 212.233033,471.906474 213.077105,472.310441 C214.353209,472.897525 215.466051,474.017312 217.255261,475.2958 C219.010042,476.569849 221.56336,477.749565 224.949644,477.711656 C227.216421,477.718491 229.115583,477.236838 230.640466,476.497712 C232.942783,475.375706 234.327727,473.91854 235.587171,473.058446 C236.873271,472.193912 237.871719,471.661209 240.201802,471.622366 C241.752229,471.631244 242.704031,471.906474 243.573647,472.310441 C244.839755,472.897525 245.962593,474.017312 247.738476,475.2958 C249.493257,476.569849 252.05657,477.749565 255.461734,477.711656 C257.718516,477.718491 259.622121,477.236838 261.14145,476.497712 C263.44932,475.375706 264.829822,473.91854 266.088156,473.058446 C267.36537,472.193912 268.391584,471.661209 270.70945,471.622366 C272.26543,471.631244 273.218343,471.906474 274.060194,472.310441 C275.338518,472.897525 276.454692,474.017312 278.235018,475.2958 C279.994242,476.569849 282.545338,477.749565 285.950502,477.711656 C288.206173,477.718491 290.115331,477.236838 291.625775,476.497712 C293.94142,475.375706 295.317479,473.91854 296.574702,473.058446 C297.865244,472.193912 298.869245,471.661209 301.203771,471.622366 C302.741981,471.631244 303.703779,471.906474 304.556736,472.310441 C305.839503,472.897525 306.955677,474.017312 308.740445,475.2958 C310.490784,476.569849 313.055207,477.749565 316.444823,477.711656 C318.719375,477.718491 320.615205,477.236838 322.135645,476.497712 C324.440183,475.375706 325.825128,473.91854 327.082351,473.058446 C328.362897,472.193912 329.390221,471.661209 331.706977,471.622366 C333.260735,471.631244 334.225865,471.909804 335.078822,472.310441 C336.328271,472.891976 337.446666,473.9707 339.159243,475.223663 C339.197005,475.248079 339.225881,475.276934 339.254757,475.2958 C341.027308,476.569849 343.579515,477.749565 346.980237,477.711656 C349.252567,477.718491 351.148397,477.236838 352.685497,476.507701 C354.994478,475.375706 356.378311,473.91854 357.635534,473.060665 C358.928297,472.193912 359.943405,471.661209 362.273488,471.622366 C363.763941,471.622366 364.952306,470.419344 364.952306,468.942202 C364.952306,467.456181 363.763941,466.257598 362.273488,466.257598" id="Fill-100" fill="#E2E7F2"></path>
            <path d="M175.424114,109.638353 C175.38225,109.646136 175.261067,109.693946 175.128866,109.709512 C173.962196,109.849608 172.79773,110.004157 171.63106,110.114232 C170.412612,110.228754 169.247044,110.475589 168.264353,111.263903 C166.869638,112.382441 166.406936,113.932384 166.361767,115.646883 C166.354055,116.017135 166.253803,116.271752 165.967369,116.51414 C164.956035,117.364718 164.434944,118.600002 163.674791,119.644046 C163.649453,119.675178 163.638436,119.717429 163.621911,119.757456 C163.335477,120.471275 163.615301,121.022761 164.354522,121.227344 C164.572653,121.289609 164.699345,121.265148 164.775361,121.017202 C164.89324,120.618041 165.061795,120.251125 165.578479,120.251125 C165.668816,120.251125 165.766865,120.153281 165.848388,120.085457 C166.380496,119.665171 166.877349,119.191516 167.445812,118.827935 C167.986732,118.48548 168.571719,118.148584 169.184249,118.00293 C170.684725,117.652691 172.177489,117.758319 173.706609,118.09855 C176.465193,118.714525 179.295386,118.738986 182.104648,118.563311 C182.59379,118.535514 182.939714,118.600002 183.204115,119.031407 C183.553345,119.598459 183.948845,120.135491 184.283753,120.71255 C185.566098,122.900705 186.522349,125.246744 187.464278,127.59612 C187.611902,127.957476 187.787067,128.319945 188.009605,128.640163 C188.644167,129.569684 189.302967,130.481415 189.952953,131.393146 C189.999223,131.459858 190.047696,131.528794 190.110492,131.586611 C192.10011,133.5157 194.040153,135.4926 196.090363,137.358313 C198.81149,139.838889 201.797019,141.960332 205.094321,143.602559 C205.997691,144.052866 206.960552,144.381978 207.911294,144.724433 C208.286964,144.856745 208.475349,144.637708 208.315607,144.267456 C208.129425,143.836051 207.870532,143.426884 207.634774,143.016605 C207.490455,142.77533 207.33512,142.546286 207.141226,142.249417 C207.481642,142.249417 207.736128,142.272766 207.986207,142.246081 C208.35086,142.204942 208.452214,141.985904 208.252812,141.675694 C208.111798,141.459991 207.924514,141.277645 207.741636,141.098634 C207.482744,140.845129 207.211733,140.602742 206.895553,140.316992 C207.029957,140.288083 207.074024,140.276965 207.122497,140.266958 C207.697569,140.142429 207.801127,139.866686 207.393508,139.433057 C207.114785,139.138413 206.782081,138.889354 206.461494,138.644744 C206.195992,138.447943 205.907354,138.280051 205.560328,138.056566 C205.831339,137.976511 206.025233,137.930925 206.207008,137.864213 C206.745726,137.668524 206.834961,137.279371 206.387683,136.925797 C206.070401,136.676739 205.707951,136.484386 205.356518,136.288697 C205.086609,136.139707 204.792463,136.032968 204.422301,135.866188 C204.583145,135.84395 204.641534,135.845062 204.688906,135.829496 C204.999577,135.732763 205.467787,135.847286 205.547107,135.437007 C205.625326,135.031175 205.185759,134.875514 204.905935,134.680937 C204.590857,134.458564 204.254847,134.267323 203.863754,134.022712 C204.132562,133.941545 204.316541,133.907078 204.482893,133.834806 C204.827716,133.689152 204.864071,133.461219 204.575434,133.222167 C204.443233,133.108757 204.282389,133.025367 204.129257,132.94976 C203.829602,132.804105 203.527744,132.668458 203.132244,132.490559 C203.309613,132.441637 203.387832,132.438301 203.447322,132.401609 C203.569608,132.334897 203.75579,132.263738 203.77562,132.164782 C203.799857,132.059154 203.691893,131.880144 203.591641,131.803425 C203.38012,131.638869 203.141058,131.506556 202.89869,131.383139 C202.588019,131.234149 202.272941,131.101837 201.932524,130.947287 C202.052607,130.706012 202.130825,130.503652 202.242094,130.321306 C202.39743,130.070024 202.324719,129.903244 202.086758,129.790945 C201.733122,129.626389 201.369571,129.477399 201.014832,129.310619 C200.753736,129.188313 200.503657,129.052666 200.162139,128.880326 C200.471709,128.586793 200.714076,128.359972 200.960851,128.129816 C200.463997,127.824052 199.974855,127.533855 199.504441,127.218085 C199.363427,127.121352 199.183855,126.928999 199.186058,126.787792 C199.2136,125.827139 198.865472,124.966554 198.527259,124.10708 C197.220677,120.812618 195.596814,117.673817 193.90685,114.565036 C193.593976,113.989089 193.616009,113.767828 194.20981,113.500979 C194.865304,113.196328 195.552747,112.930592 196.258918,112.758252 C196.685265,112.65596 197.172204,112.692652 197.613974,112.788273 C198.483192,112.980626 199.323767,113.295284 200.188579,113.493196 C201.455501,113.776723 201.23076,113.924601 201.556855,112.698211 C202.097775,110.665718 201.843289,108.768873 200.158834,107.327893 C198.490904,105.901367 196.473744,105.388797 194.337604,105.275386 C194.217522,105.273162 194.068796,105.37879 193.961934,105.469963 C193.466182,105.889137 192.989158,106.341667 192.472475,106.739715 C192.276377,106.890929 191.985536,107.009899 191.745372,106.997668 C190.55777,106.944299 189.370169,106.858685 188.185872,106.743051 C187.907149,106.717478 187.59097,106.578495 187.387161,106.388365 C186.585144,105.636743 185.764399,104.895128 185.048313,104.061227 C182.221425,100.741192 178.721416,98.4262844 174.667266,96.9441655 C174.05033,96.7184565 173.680168,96.4682864 173.423479,95.7644744 C172.211641,92.4611171 170.147109,89.7948596 167.208952,87.8524277 C166.305582,87.2531313 165.338315,86.7928183 164.347912,86.5648855 C164.290625,86.7249944 164.248762,86.845076 164.202492,86.9629339 C164.081308,87.2742567 163.879702,87.5833558 163.85216,87.908021 C163.787162,88.6929993 163.72657,89.490208 163.793772,90.2707388 C164.044953,93.0326168 164.645364,95.7322303 165.311875,98.4229488 C165.448482,98.9944486 165.715086,99.4858938 166.197618,99.8405795 C167.319119,100.678927 168.418587,101.537289 169.564325,102.338945 C170.912771,103.286256 172.174184,104.335858 173.171196,105.662316 C173.749574,106.430616 174.292698,107.233384 174.782941,108.065061 C175.069376,108.538716 175.213695,109.095762 175.424114,109.638353" id="Fill-102" fill="#C9E9FB"></path>
            <path d="M208.050498,228.391945 C205.557765,224.519937 193.992898,205.606578 187.700185,186.643092 C180.660316,165.387146 164.308116,162.427443 152.774243,164.062687 C143.025795,165.442842 136.274826,172.166503 133.136771,176.416132 C132.350874,177.48216 131.777501,178.376643 131.444325,178.926923 C131.203021,179.325709 131.081262,179.556291 131.081262,179.556291 C130.802324,181.073459 131.012635,183.76025 131.203021,186.689877 C131.452073,184.414125 132.236864,182.304348 133.827476,180.534319 C138.344725,182.237513 147.412431,186.057167 153.189329,191.216874 C160.63543,197.890408 162.558111,206.776201 171.558296,213.704824 C172.132776,214.139255 172.715004,214.568117 173.338188,214.989181 C194.467757,229.156099 208.544175,229.156099 208.544175,229.156099 C208.544175,229.156099 208.351574,228.859794 208.050498,228.391945" id="Fill-104" fill="#2DB8C5"></path>
        </g>
    </g>
</svg>