<?xml version="1.0" encoding="utf-8"?>
<!-- Generator: Adobe Illustrator 16.0.0, SVG Export Plug-In . SVG Version: 6.00 Build 0)  -->
<!DOCTYPE svg PUBLIC "-//W3C//DTD SVG 1.1//EN" "http://www.w3.org/Graphics/SVG/1.1/DTD/svg11.dtd">
<svg version="1.1" id="Layer_1" xmlns="http://www.w3.org/2000/svg" xmlns:xlink="http://www.w3.org/1999/xlink" x="0px" y="0px"
	 width="183px" height="40px" viewBox="0 0 183 40" enable-background="new 0 0 183 40" xml:space="preserve">
<title>Logo_Straumann</title>
<desc>Created with Sketch.</desc>
<g id="Keyscreens">
	<g id="Logo_Straumann">
		<path id="Fill-1" d="M28.139,9.463V0c0,0-18.416,12.412-22.273,15.021c-2.616,1.77-3.116,4.155-3.116,5.135
			c0,0.981,0.269,2.962,1.923,5.058C6.866,23.754,28.139,9.463,28.139,9.463"/>
		<path id="Fill-3" d="M23.677,14.656L0,30.369v9.309c0,0,20.273-13.501,22.619-15.059c2.347-1.56,2.878-3.674,2.867-5.406
			C25.466,16.445,23.677,14.656,23.677,14.656"/>
		<path id="Fill-5" fill="#231F20" d="M42.872,16.521l1.789-3.25c0,0-1.654-1.019-4.828-1.019s-6.683,1.538-6.732,5.289
			c-0.039,3,2.578,3.444,4.193,3.924s2.404,0.538,2.404,1.538s-1.25,1.146-1.653,1.153c-1.808,0.039-4.097-1.519-4.097-1.519
			l-1.942,3.558c0,0,2.462,1.73,5.962,1.73s7.135-1.557,7.135-5.596c0-3.078-2.712-3.848-4.578-4.193
			c-1.73-0.321-2.231-0.558-2.231-1.347c0-0.789,0.961-0.98,1.789-0.98C41.814,15.81,42.872,16.521,42.872,16.521"/>
		<polygon id="Fill-7" fill="#231F20" points="47.181,27.466 52.489,27.466 52.489,17.08 55.375,17.08 55.375,12.714 52.489,12.714 
			52.489,8.348 47.2,8.348 47.2,12.714 45.469,12.714 45.469,17.08 47.181,17.08 		"/>
		<path id="Fill-9" fill="#231F20" d="M55.739,27.446h5.29v-6.694c0-2.846,2-3.788,3.693-3.788c1.692,0,2.173,0.462,2.173,0.462
			v-4.963c-4.866,0-5.847,2.77-5.847,2.77v-2.52h-5.29L55.739,27.446z"/>
		<path id="Fill-11" fill="#231F20" d="M141.811,25.979c0,0-1.385,2.175-4.539,2.175s-7.463-2.463-7.463-7.828
			c0-5.366,4.193-7.944,7.443-7.944s4.692,2.058,4.692,2.058v-1.616h5.175v14.869h-5.309V25.979z M138.561,16.959
			c-2.327,0-3.327,1.635-3.327,3.308c0,1.673,0.886,3.29,3.386,3.29s3.422-1.655,3.422-3.347
			C142.041,18.517,140.889,16.959,138.561,16.959L138.561,16.959z"/>
		<path id="Fill-13" fill="#231F20" d="M91.283,12.714h-5.309v8.829c0,2.77,0.865,6.5,8.154,6.5c7.291,0,7.521-4.789,7.521-6.154
			v-9.06h-5.29v8.251c0,1.674-0.596,2.827-2.537,2.827c-1.943,0-2.559-1.134-2.559-2.56C91.264,19.926,91.283,12.714,91.283,12.714"
			/>
		<path id="Fill-15" fill="#231F20" d="M109.036,12.81h-5.29V27.58h5.29v-8.405c0-1.981,1.096-2.789,2.347-2.789
			c1.25,0,2.174,0.923,2.174,2.827v8.347h5.288v-7.809c0-1.904,0.885-3.231,2.481-3.231c1.598,0,2.154,1.116,2.154,2.77v8.289h5.193
			v-10.25c0-3.424-2.463-4.962-4.924-4.962c-2.463,0-4.617,1.827-5.021,3.078c-0.211-1.231-2.173-3.078-5.116-3.078
			s-4.598,2.481-4.598,2.481L109.036,12.81z"/>
		<path id="Fill-17" fill="#231F20" d="M78.569,25.869c0,0-1.385,2.174-4.539,2.174s-7.463-2.463-7.463-7.828
			c0-5.367,4.193-7.944,7.444-7.944c3.25,0,4.693,2.058,4.693,2.058v-1.616h5.173V27.58h-5.309L78.569,25.869L78.569,25.869z
			 M75.338,16.849c-2.327,0-3.327,1.634-3.327,3.308c0,1.673,0.885,3.289,3.385,3.289c2.5,0,3.424-1.653,3.424-3.346
			S77.667,16.849,75.338,16.849L75.338,16.849z"/>
		<g id="Group-21" transform="translate(166.400000, 12.478400)">
			<g id="Fill-19-Clipped">
				<g id="path-1_1_">
				</g>
				<defs>
					<filter id="Adobe_OpacityMaskFilter" filterUnits="userSpaceOnUse" x="0.592" y="0.006" width="15.547" height="15.211">
						<feColorMatrix  type="matrix" values="1 0 0 0 0  0 1 0 0 0  0 0 1 0 0  0 0 0 1 0"/>
					</filter>
				</defs>
				<mask maskUnits="userSpaceOnUse" x="0.592" y="0.006" width="15.547" height="15.211" id="mask-2">
					<g filter="url(#Adobe_OpacityMaskFilter)">
						<polygon id="path-1" fill="#FFFFFF" points="0.592,0.006 16.139,0.006 16.139,15.218 0.592,15.218 						"/>
					</g>
				</mask>
				<path id="Fill-19" mask="url(#mask-2)" fill="#231F20" d="M0.592,15.218V0.357h5.17v2.142c0,0,1.273-2.492,4.709-2.492
					c3.434,0,5.668,1.735,5.668,6.074v9.138h-5.281V6.837c0-1.699-0.665-2.695-2.418-2.695c-1.755,0-2.678,1.07-2.678,3.692v7.384
					H0.592z"/>
			</g>
		</g>
		<path id="Fill-22" fill="#231F20" d="M149.335,27.696V12.835h5.171v2.142c0,0,1.273-2.492,4.707-2.492
			c3.436,0,5.67,1.735,5.67,6.074v9.138h-5.281v-8.381c0-1.699-0.665-2.695-2.418-2.695c-1.755,0-2.678,1.07-2.678,3.692v7.384
			H149.335z"/>
	</g>
</g>
</svg>
