<?xml version="1.0" encoding="UTF-8"?>
<svg width="142px" height="40px" viewBox="0 0 142 40" version="1.1" xmlns="http://www.w3.org/2000/svg" xmlns:xlink="http://www.w3.org/1999/xlink">
    <!-- Generator: Sketch 62 (91390) - https://sketch.com -->
    <title>Group 17</title>
    <desc>Created with Sketch.</desc>
    <g id="Keyscreens" stroke="none" stroke-width="1" fill="none" fill-rule="evenodd">
        <g id="Desktop-HD-Copy-43" transform="translate(-426.000000, -3679.000000)">
            <g id="Group-17" transform="translate(426.000000, 3679.000000)">
                <polygon id="Fill-1" fill="#040C8C" points="0 40 141.714286 40 141.714286 0 0 0"></polygon>
                <g id="Group-16" transform="translate(12.527230, 9.411765)" fill="#FFFFFF">
                    <path d="M6.15090033,21.0937255 L0.644571798,21.0937255 L0.644571798,5.40843137 L6.27571431,0.017254902 C24.96298,-0.412156863 23.8048224,21.8054902 7.25681027,21.184902 L7.25681027,15.6701961 C15.5700021,17.602549 17.3638403,3.97607843 6.15090033,5.40843137 L6.15090033,21.0937255 Z" id="Fill-2"></path>
                    <polygon id="Fill-4" points="35.1152914 5.31931373 40.3981158 0.0928431373 26.7556571 0.0928431373 21.3770452 5.19284314 21.3770452 21.1957843 35.1152914 21.1957843 35.1152914 15.8428431 27.0110904 15.8428431 27.0110904 13.207549 35.1152914 13.207549 35.1152914 7.84578431 27.1678336 7.84578431 27.1678336 5.35166667"></polygon>
                    <polygon id="Fill-6" points="55.9142355 20.9846078 55.9142355 0.143431373 50.6285085 0.143431373 50.6285085 7.8022549 41.8915296 0.143431373 36.4142276 5.39343137 36.4142276 21.2081373 42.0163436 21.2081373 42.0163436 8.21990196"></polygon>
                    <polygon id="Fill-8" points="61.0391558 0.103431373 55.5966855 5.30343137 60.87951 5.30343137 60.87951 21.2093137 66.4206703 21.2093137 66.4206703 5.45931373 67.5236776 5.45931373 73.1606254 0.144607843"></polygon>
                    <polygon id="Fill-10" points="88.7347982 21.3351961 88.7347982 5.81754902 94.7461879 0.620490196 94.7461879 21.3351961"></polygon>
                    <path d="M101.864649,21.2201961 L96.3583202,21.2201961 L96.3583202,5.53490196 L101.992365,0.149607843 C120.679631,-0.285686275 119.521473,21.9378431 102.973461,21.3172549 L102.973461,15.7937255 C111.289556,17.7231373 113.077589,4.09666667 101.864649,5.53490196 L101.864649,21.2201961 Z" id="Fill-12"></path>
                    <polygon id="Fill-14" points="67.7219286 20.9187255 67.7219286 13.6716667 82.0261917 0.262843137 87.0913173 0.262843137 87.0913173 21.1716667 81.5211304 21.1716667 81.5211304 18.3540196 72.0236571 18.3716667 77.5328883 13.2216667 81.4543695 13.2216667 81.4543695 8.3422549"></polygon>
                </g>
            </g>
        </g>
    </g>
</svg>