<?xml version="1.0" encoding="UTF-8"?>
<svg width="82px" height="40px" viewBox="0 0 82 40" version="1.1" xmlns="http://www.w3.org/2000/svg" xmlns:xlink="http://www.w3.org/1999/xlink">
    <!-- Generator: Sketch 62 (91390) - https://sketch.com -->
    <title>Logo_Colgate</title>
    <desc>Created with Sketch.</desc>
    <g id="Keyscreens" stroke="none" stroke-width="1" fill="none" fill-rule="evenodd">
        <g id="Logo_Colgate" fill-rule="nonzero">
            <polygon id="Fill-1" fill="#E71600" points="0 -4.62046205e-05 0 19.9848053 0 39.9696238 40.7238283 39.9696238 81.4476897 39.9696238 81.4476897 -4.62046205e-05"></polygon>
            <g id="Group-8" transform="translate(10.297030, 8.121453)" fill="#FFFFFF">
                <path d="M30.648297,23.8817624 C32.9846337,23.7683301 34.9506733,23.3501122 37.1059538,22.507901 C40.6787261,21.1118283 43.9705413,18.4944687 46.1094851,15.3490561 L46.2551947,15.1347657 L45.9151947,14.2545016 C45.728165,13.7703432 45.5631815,13.3127525 45.548561,13.298099 C45.2707063,13.5745677 45.0091881,13.8705413 44.7441717,14.1412673 C41.1117954,17.8489901 36.997307,19.9936766 32.2885941,20.6359538 C31.2810363,20.7733795 29.1391221,20.8096502 28.0701122,20.7073729 C23.278528,20.2490231 18.9567789,18.1457558 15.2462178,14.4684951 C14.8837096,14.0864159 14.4927194,13.7615974 14.1372079,13.3480661 C13.8294851,13.9816633 13.6436766,14.487769 13.3736435,15.1832806 L13.6164159,15.5321914 C14.6268779,16.9844687 16.2712673,18.6844357 17.7854587,19.8421584 C20.9499142,22.2615974 24.8570099,23.6908713 28.8242376,23.8802112 C29.2260858,23.8994191 29.5866469,23.918 29.6255248,23.9215313 C29.6644026,23.9250627 30.1246666,23.907175 30.648297,23.8817624" id="Fill-2"></path>
                <path d="M60.4551155,1.50563696 C60.8848845,1.50563696 61.230033,1.84976238 61.230033,2.2780132 C61.230033,2.70626402 60.8848845,3.0509175 60.4551155,3.0509175 C60.0253465,3.0509175 59.680693,2.70626402 59.680693,2.2780132 C59.680693,1.84976238 60.0253465,1.50563696 60.4551155,1.50563696 L60.4551155,1.50563696 Z M60.4551155,1.19840925 C59.859472,1.19840925 59.3729703,1.68316171 59.3729703,2.2780132 C59.3729703,2.87286469 59.859472,3.35811221 60.4551155,3.35811221 C61.0507921,3.35811221 61.5377888,2.87286469 61.5377888,2.2780132 C61.5377888,1.68316171 61.0507921,1.19840925 60.4551155,1.19840925 L60.4551155,1.19840925 Z M60.3128053,2.19194059 L60.4470957,2.19194059 C60.4616171,2.19194059 60.489736,2.18725413 60.5314521,2.17788119 C60.5525413,2.17365677 60.5696699,2.16289769 60.5827722,2.14557096 C60.5963696,2.12821122 60.6031683,2.10827722 60.6031683,2.08580198 C60.6031683,2.05250165 60.5926073,2.0269571 60.5715182,2.00916832 C60.5504621,1.99134654 60.510825,1.98243565 60.4527393,1.98243565 L60.3128053,1.98243565 L60.3128053,2.19194059 Z M59.9929373,2.8049769 L59.9929373,1.77434984 L60.5237294,1.77434984 C60.6221782,1.77434984 60.6973927,1.78276568 60.7494059,1.79966337 C60.8014191,1.81652806 60.8433663,1.84791419 60.8752145,1.89385479 C60.9070957,1.93933334 60.9230693,1.99484488 60.9230693,2.06048845 C60.9230693,2.11765016 60.9108581,2.16708911 60.8864687,2.20880528 C60.8621122,2.25005941 60.8285809,2.28355776 60.7859406,2.30936633 C60.7587458,2.32576897 60.7214851,2.33933334 60.6741914,2.35012542 C60.7121122,2.36276568 60.7398019,2.37540594 60.7571287,2.38807921 C60.7688449,2.39652806 60.7857426,2.41458086 60.8077558,2.44220462 C60.830231,2.46986138 60.8452145,2.49121453 60.8527393,2.50619802 L61.0066997,2.8049769 L60.6467657,2.8049769 L60.4766007,2.4900264 C60.4550495,2.44926733 60.4358416,2.42276568 60.4189439,2.41058746 C60.3960066,2.39464687 60.37,2.38669307 60.3409241,2.38669307 L60.3128053,2.38669307 L60.3128053,2.8050099 L59.9929373,2.8049769 Z" id="Fill-4"></path>
                <path d="M22.6053565,0.227016502 L18.7791848,10.0929571 L21.3174026,10.0929571 L25.1426171,0.227016502 L22.6053565,0.227016502 Z M13.4032773,9.01671947 C12.790901,9.01671947 12.3521551,8.86289109 12.0888878,8.5609769 C11.8067755,8.23166997 11.7369406,7.7249703 11.8737722,7.04464026 C12.1228482,5.81328713 13.1938383,3.98275907 15.1083267,3.98275907 C15.5715941,3.98275907 15.9160165,4.11487129 16.1339703,4.37058086 C16.3906369,4.66873267 16.4661155,5.13110891 16.3576007,5.68120792 C15.710307,8.85632343 13.7844984,9.01671947 13.4032773,9.01671947 L13.4032773,9.01671947 Z M15.1592838,2.74292409 C12.5889867,2.74292409 9.76109901,4.2799868 9.24307921,6.87292409 C8.69109901,9.64417822 11.1528812,10.2377096 12.7361815,10.2575116 C16.2962475,10.3009109 18.4674357,8.16939274 18.9627822,5.99728053 C19.4374026,3.9129571 17.5955874,2.74292409 15.1592838,2.74292409 L15.1592838,2.74292409 Z M38.6138713,6.62853465 C37.271165,6.76912871 36.7691848,7.11635643 36.6578647,7.76365016 C36.5644323,8.28166997 36.8993829,8.76193399 38.1533762,8.70817162 C38.8780627,8.67609241 39.6763135,8.49869967 40.2349274,8.21846865 L40.8557855,6.59457426 C39.9216601,6.53794059 39.2913631,6.55873267 38.6138713,6.62853465 L38.6138713,6.62853465 Z M36.6182278,2.97879867 C37.551396,2.83256105 38.4298449,2.67213201 40.1349274,2.67213201 C42.8693829,2.67213201 44.5498779,3.57609241 43.7648283,5.62081189 C43.4251254,6.50209901 43.0741353,7.42398019 42.7778647,8.20431023 C42.3588878,9.29034984 42.450439,9.70553135 42.5362806,10.0933201 C42.5362806,10.0933201 41.8975016,9.85556435 40.5566766,9.89516832 C39.3564785,9.92632343 38.8375016,10.2339142 36.870175,10.2339142 C34.7443003,10.2339142 33.9639703,9.18091089 34.0479307,8.06655446 C34.120604,7.0889967 34.6641023,6.23883168 35.8841353,5.75384818 C36.6851914,5.4330561 37.4900759,5.32642245 38.3251584,5.26226402 C39.6055544,5.16034984 40.751033,5.21411221 41.3672046,5.26226402 C41.4813631,4.89615841 41.6389538,4.15071287 39.8376997,4.13939274 C37.910901,4.12431023 36.5880297,4.46209901 35.9803729,4.64988779 L36.6182278,2.97879867 Z M27.7570726,8.83338614 C26.2728152,8.83338614 26.4077327,7.39067986 26.931429,6.26404621 C27.5976007,4.82510231 28.9459505,4.16365016 29.8074357,4.13249505 C30.4452904,4.1079736 30.9793498,4.20421122 31.4077327,4.61279208 C30.4009339,8.52483829 28.3628482,8.83338614 27.7570726,8.83338614 L27.7570726,8.83338614 Z M33.3609339,3.10213201 C32.0569075,3.10213201 31.9983927,2.74546535 29.8715941,2.74546535 C26.821033,2.74546535 24.3149274,4.99117491 23.9544654,7.46992079 C23.8450264,8.25120792 24.0629802,8.94945874 24.5158845,9.44008581 C24.9791848,9.95338614 25.6840363,10.1486997 26.5200429,10.1874125 C27.7570726,10.242132 28.8874687,9.99586138 29.9735082,9.28629043 C29.3366105,11.1696568 27.1758185,11.5631221 25.7170726,11.5508449 C25.0093829,11.5461584 24.2337722,11.5159603 23.6185577,11.221538 L22.9863795,12.8246733 C23.6185577,12.9935841 24.5687558,13.1030231 25.3320891,13.1030231 C28.8969075,13.1030231 31.1925841,11.8291947 32.1455874,9.32120792 L34.5790858,2.90586138 C34.5790858,2.90586138 33.8572376,3.10213201 33.3609339,3.10213201 L33.3609339,3.10213201 Z M8.37093399,8.02011881 C7.89915182,8.24279208 6.78387129,8.57589439 5.8950264,8.57589439 C3.5040033,8.57589439 2.76991089,7.12279208 3.02373927,5.70460726 C3.44456435,3.37021782 5.69687458,1.59817162 8.36152806,1.59817162 C9.18713862,1.59817162 9.92595049,1.75480528 10.5770066,2.02279208 L11.3620561,0.503650165 C10.7062805,0.206422442 9.77307921,0.0195907591 8.90215512,0.0195907591 C4.64007591,0.0195907591 0.654432343,2.45209901 0.0864125413,5.69516832 C-0.414643565,8.55794059 2.05845874,10.1506799 5.08826073,10.1506799 C5.90255115,10.1506799 6.80555446,10.0214389 7.55476238,9.84685149 L8.37093399,8.02011881 Z M49.1643003,2.68922773 L49.6992838,1.25404621 L46.9978647,1.71922773 L46.6279967,2.68922773 L45.4362475,2.68922773 L45.0031453,3.87246205 L46.190175,3.87246205 L44.7653565,7.39008581 C44.401165,8.27988779 44.3851254,8.93850165 44.7087558,9.38292409 C45.0295809,9.82450825 45.6636733,10.0368185 46.6411981,10.0368185 C47.1893829,10.0368185 47.9376666,9.92642245 48.5198449,9.77638944 L49.0973037,8.38840264 C48.7670397,8.52143895 48.2414951,8.65823762 47.8111981,8.66959075 C47.5074026,8.68275907 47.330967,8.61767657 47.2167755,8.47048185 C47.0554224,8.25721453 47.1026171,7.83450825 47.330967,7.25609241 C47.330967,7.2570165 48.5056865,4.37444224 48.7095149,3.87246205 L50.4834093,3.87246205 L50.9419901,2.68922773 L49.1643003,2.68922773 Z M55.4936733,3.91464026 C55.9578977,3.91464026 56.2796799,4.03351815 56.4579967,4.26374918 C56.6683927,4.54021782 56.6788218,4.98935974 56.4872376,5.56021782 L53.170604,5.56021782 C53.4272376,4.77424423 54.1660825,3.91464026 55.4936733,3.91464026 L55.4936733,3.91464026 Z M57.430835,8.45226402 L57.430835,8.45226402 C56.7241023,8.79668647 55.4936733,8.98348514 54.6737063,8.98348514 C53.9575677,8.98348514 53.3725182,8.74572937 53.0243334,8.31355115 C52.7129802,7.91444224 52.6337063,7.39074587 52.7875346,6.81612542 L58.6150264,6.81612542 L58.6442673,6.74064687 C59.1000099,5.47058086 59.0424521,4.36850165 58.481,3.64008581 C57.9677327,2.97015182 57.0769736,2.62856766 55.8371386,2.62856766 C53.0781287,2.62856766 50.7305379,4.16658746 50.1219241,6.36886469 C49.8133762,7.48133993 49.970967,8.45605941 50.5767096,9.18827063 C51.2447624,9.99876568 52.4242673,10.4441452 53.8876997,10.4441452 C54.7341023,10.4441452 55.7559835,10.292231 56.6740693,10.0176766 L57.430835,8.45226402 Z" id="Fill-6"></path>
            </g>
        </g>
    </g>
</svg>