<?xml version="1.0" encoding="UTF-8"?>
<svg width="116px" height="39px" viewBox="0 0 116 39" version="1.1" xmlns="http://www.w3.org/2000/svg" xmlns:xlink="http://www.w3.org/1999/xlink">
    <!-- Generator: Sketch 62 (91390) - https://sketch.com -->
    <title>Logo_OralB</title>
    <desc>Created with Sketch.</desc>
    <defs>
        <polygon id="path-1" points="0 0.202764977 115.78341 0.202764977 115.78341 37.7878341 0 37.7878341"></polygon>
    </defs>
    <g id="Keyscreens" stroke="none" stroke-width="1" fill="none" fill-rule="evenodd">
        <g id="Logo_OralB">
            <g id="Group-3" transform="translate(0.000000, 0.718894)">
                <g id="Fill-1-Clipped">
                    <mask id="mask-2" fill="white">
                        <use xlink:href="#path-1"></use>
                    </mask>
                    <g id="path-1"></g>
                    <path d="M96.990507,37.7878341 C102.011705,37.7878341 106.731521,35.8329954 110.279908,32.282765 C113.830138,28.7352995 115.784055,24.0164055 115.784055,18.996129 C115.784055,8.63391705 107.352719,0.202580645 96.990507,0.202580645 L18.7941935,0.202580645 C13.773917,0.202580645 9.05502305,2.15926267 5.50479263,5.70857143 C1.95640554,9.25788018 -0.000276497695,13.9758525 -0.000276497695,18.996129 C-0.000276497695,24.0164055 1.95640554,28.7352995 5.50479263,32.282765 C9.05317973,35.8329954 13.773917,37.7878341 18.7941935,37.7878341 L96.990507,37.7878341 Z" id="Fill-1" fill="#FFFFFF" fill-rule="nonzero" mask="url(#mask-2)"></path>
                </g>
            </g>
            <path d="M96.9796314,36.2124425 C106.11235,36.2124425 113.516037,28.8096774 113.516037,19.6760369 C113.516037,10.540553 106.11235,3.1359447 96.9796314,3.1359447 L18.780553,3.1359447 C9.6478341,3.1359447 2.24138249,10.540553 2.24138249,19.6760369 C2.24138249,28.8096774 9.6478341,36.2124425 18.780553,36.2124425 L96.9796314,36.2124425 Z" id="Fill-4" fill="#1574C4" fill-rule="nonzero"></path>
            <path d="M16.9415592,21.9609217 C16.9452534,24.3756683 18.1913364,25.964609 20.6862672,25.964609 C25.1692166,25.9664516 26.4954839,19.6494009 26.5038039,17.0521659 C26.5083871,14.9341935 25.2475575,13.0788941 22.7129954,13.0761286 C19.6143779,13.0752074 16.9378801,16.2429493 16.9415592,21.9609217 M34.0687557,17.4189862 C34.0097695,22.876129 30.6623041,31.7839631 20.3839631,31.7491455 C12.7185253,31.7491455 9.52313364,26.913917 9.46967742,21.5729032 C9.42175115,13.8070046 14.5950231,7.14525346 23.157235,7.16361047 C30.6503226,7.18119815 34.1277419,11.8466359 34.0687557,17.4189862" id="Fill-6" fill="#FFFFFF" fill-rule="nonzero"></path>
            <path d="M51.6923498,26.0462672 C51.6923498,28.0877419 56.0951152,28.1882027 57.1946543,23.5153917 C54.5531797,24.317235 51.6914285,24.4748387 51.6923498,26.0462672 M54.0195392,19.7817511 L44.8776037,19.7817511 C43.5218434,19.7817511 41.7743779,20.4471889 41.0462672,23.9015668 L39.4711521,31.2481106 L32.7882027,31.2481106 L36.4121659,14.3863595 L42.2011059,14.3863595 L42.2011059,16.1209217 C43.0388941,15.2213825 44.8047926,13.1006452 48.3347466,14.1596314 L47.606636,17.5513364 C49.7384332,14.5513364 52.8757604,13.9246083 56.4729954,13.911705 C61.0628572,13.9024885 65.6130876,15.7181566 64.6978801,19.9854378 L62.7780645,28.8895853 C62.5135484,30.1052534 62.7642396,30.6121659 63.041659,31.2398156 L55.8011059,31.2398156 L55.8011059,30.1596314 C51.5946543,33.1826728 45.0029493,31.7946543 45.0121659,26.6075575 C45.0250692,22.3107834 49.2776037,21.3716129 50.2674654,21.1937328 C54.873917,20.3587097 58.0315208,20.441659 58.3319815,19.1531797 C58.7024885,17.5633179 54.3384332,17.4094009 54.0195392,19.7817511" id="Fill-8" fill="#FFFFFF" fill-rule="nonzero"></path>
            <polygon id="Fill-10" fill="#FFFFFF" fill-rule="nonzero" points="76.3449769 7.8286636 71.2832258 31.2480185 64.4500461 31.2480185 69.5062672 7.8286636"></polygon>
            <path d="M95.6106912,16.8098618 L91.0272812,16.8098618 L91.7793548,13.3250692 L96.243871,13.3250692 C99.0420276,13.3250692 98.5000921,16.8098618 95.6106912,16.8098618 M94.4540092,25.2670046 L89.2051613,25.2670046 L90.0420276,21.390507 L95.1563134,21.390507 C97.4669124,21.3941935 97.1848848,25.2670046 94.4540092,25.2670046 M101.021751,19.2393548 C103.811613,17.7269124 104.78212,15.822765 104.784885,13.2476498 C104.749862,7.33059908 97.9526267,7.83658986 94.9876498,7.83658986 L85.8033179,7.83658986 L83.8752074,16.8089401 L78.2558525,16.8089401 L77.2604608,21.390507 L82.8890323,21.390507 L80.768295,31.2476498 L94.2715208,31.2476498 C101.94341,31.2476498 103.550783,25.9656221 103.55447,23.9296774 C103.559078,21.1951152 102.419908,20.333364 101.021751,19.2393548" id="Fill-12" fill="#FFFFFF" fill-rule="nonzero"></path>
            <path d="M107.152166,17.1154839 C105.764147,17.1154839 104.634194,18.2463595 104.634194,19.6352995 C104.634194,21.0251613 105.764147,22.1541935 107.152166,22.1541935 C108.542949,22.1541935 109.673825,21.0251613 109.673825,19.6352995 C109.673825,18.2463595 108.542949,17.1154839 107.152166,17.1154839 M107.152166,22.6399079 C105.496866,22.6399079 104.148479,21.2924425 104.148479,19.6352995 C104.148479,17.9790783 105.496866,16.6306912 107.152166,16.6306912 C108.81023,16.6306912 110.157696,17.9790783 110.157696,19.6352995 C110.157696,21.2924425 108.81023,22.6399079 107.152166,22.6399079" id="Fill-14" fill="#FFFFFF" fill-rule="nonzero"></path>
            <path d="M107.393364,19.275576 C107.716866,19.2820276 107.958341,19.2055299 108.034839,18.8414747 C108.115945,18.4552995 107.703963,18.4552995 107.421935,18.4552995 L106.780461,18.4552995 L106.606267,19.275576 L107.393364,19.275576 Z M108.127926,20.9290323 L107.467097,20.9290323 L107.082765,19.7096774 L106.51318,19.7096774 L106.254194,20.9290323 L105.68553,20.9290323 L106.300277,18.040553 L107.612719,18.040553 C107.858802,18.040553 108.180461,18.0470046 108.368479,18.1751152 C108.594286,18.3437788 108.660645,18.6184332 108.576774,18.913364 C108.412719,19.5041475 108.054194,19.6857143 107.683687,19.7096774 L108.127926,20.9290323 Z" id="Fill-16" fill="#FFFFFF" fill-rule="nonzero"></path>
        </g>
    </g>
</svg>